G04 Layer_Color=8421504*
%FSLAX43Y43*%
%MOMM*%
G71*
G01*
G75*
%ADD20R,0.650X0.800*%
%ADD21R,3.300X3.300*%
%ADD22O,0.250X0.650*%
%ADD23O,0.650X0.250*%
%ADD24R,0.400X1.350*%
%ADD25R,0.500X0.600*%
%ADD26R,0.800X0.650*%
%ADD27R,1.200X1.200*%
%ADD28R,0.900X0.600*%
%ADD29R,0.600X0.900*%
%ADD32R,1.300X0.600*%
%ADD33R,1.000X2.250*%
%ADD34R,1.150X1.400*%
%ADD35R,0.850X0.300*%
%ADD36R,0.300X0.850*%
%ADD37R,5.200X5.200*%
%ADD38R,1.950X2.250*%
%ADD39R,0.950X1.000*%
%ADD40R,1.200X1.350*%
%ADD41R,1.050X0.650*%
G04:AMPARAMS|DCode=48|XSize=1.05mm|YSize=1.25mm|CornerRadius=0.525mm|HoleSize=0mm|Usage=FLASHONLY|Rotation=180.000|XOffset=0mm|YOffset=0mm|HoleType=Round|Shape=RoundedRectangle|*
%AMROUNDEDRECTD48*
21,1,1.050,0.200,0,0,180.0*
21,1,0.000,1.250,0,0,180.0*
1,1,1.050,0.000,0.100*
1,1,1.050,0.000,0.100*
1,1,1.050,0.000,-0.100*
1,1,1.050,0.000,-0.100*
%
%ADD48ROUNDEDRECTD48*%
G04:AMPARAMS|DCode=49|XSize=2.1mm|YSize=1.9mm|CornerRadius=0.494mm|HoleSize=0mm|Usage=FLASHONLY|Rotation=180.000|XOffset=0mm|YOffset=0mm|HoleType=Round|Shape=RoundedRectangle|*
%AMROUNDEDRECTD49*
21,1,2.100,0.912,0,0,180.0*
21,1,1.112,1.900,0,0,180.0*
1,1,0.988,-0.556,0.456*
1,1,0.988,0.556,0.456*
1,1,0.988,0.556,-0.456*
1,1,0.988,-0.556,-0.456*
%
%ADD49ROUNDEDRECTD49*%
%ADD70R,1.300X1.400*%
G36*
X34248Y74321D02*
X34301Y74314D01*
X34354Y74299D01*
X34397Y74283D01*
X34439Y74263D01*
X34483Y74235D01*
X34521Y74206D01*
X34560Y74172D01*
X34589Y74136D01*
X34617Y74099D01*
X34641Y74058D01*
X34661Y74016D01*
X34677Y73974D01*
X34689Y73923D01*
X34696Y73878D01*
X34700Y73825D01*
Y72925D01*
X34696Y72870D01*
X34688Y72825D01*
X34676Y72775D01*
X34660Y72735D01*
X34647Y72702D01*
X34622Y72659D01*
X34596Y72622D01*
X34565Y72584D01*
X34520Y72543D01*
X34480Y72513D01*
X34434Y72484D01*
X34381Y72460D01*
X34294Y72434D01*
X34200Y72425D01*
X32600D01*
Y74325D01*
X34200D01*
X34248Y74321D01*
D02*
G37*
G36*
X27400Y72425D02*
X25800D01*
X25752Y72429D01*
X25699Y72436D01*
X25646Y72451D01*
X25603Y72467D01*
X25561Y72487D01*
X25517Y72515D01*
X25479Y72544D01*
X25440Y72578D01*
X25411Y72614D01*
X25383Y72651D01*
X25359Y72692D01*
X25339Y72734D01*
X25323Y72776D01*
X25311Y72827D01*
X25304Y72872D01*
X25300Y72925D01*
Y73825D01*
X25304Y73880D01*
X25312Y73925D01*
X25324Y73975D01*
X25340Y74015D01*
X25353Y74048D01*
X25378Y74091D01*
X25404Y74128D01*
X25435Y74166D01*
X25480Y74207D01*
X25520Y74237D01*
X25566Y74266D01*
X25619Y74290D01*
X25706Y74316D01*
X25800Y74325D01*
X27400D01*
Y72425D01*
D02*
G37*
D20*
X22980Y23909D02*
D03*
Y22709D02*
D03*
X21840Y23909D02*
D03*
Y22709D02*
D03*
X18875Y35525D02*
D03*
Y34325D02*
D03*
X29800Y39700D02*
D03*
Y38500D02*
D03*
X31300Y39700D02*
D03*
Y38500D02*
D03*
X19625Y39950D02*
D03*
Y41150D02*
D03*
X20875Y40700D02*
D03*
Y41900D02*
D03*
X34500Y63700D02*
D03*
Y62500D02*
D03*
X31350Y52150D02*
D03*
Y53350D02*
D03*
X30200Y52150D02*
D03*
Y53350D02*
D03*
X27025Y7400D02*
D03*
Y6200D02*
D03*
X26625Y38825D02*
D03*
Y40025D02*
D03*
X21375Y37575D02*
D03*
Y36375D02*
D03*
X34417Y1432D02*
D03*
Y2632D02*
D03*
X25500Y62500D02*
D03*
Y63700D02*
D03*
X25315Y68926D02*
D03*
Y67726D02*
D03*
D21*
X29500Y26300D02*
D03*
D22*
X31250Y23775D02*
D03*
X30750D02*
D03*
X30250D02*
D03*
X29750D02*
D03*
X29250D02*
D03*
X28750D02*
D03*
X28250D02*
D03*
X27750D02*
D03*
Y28825D02*
D03*
X28250D02*
D03*
X28750D02*
D03*
X29250D02*
D03*
X29750D02*
D03*
X30250D02*
D03*
X30750D02*
D03*
X31250D02*
D03*
D23*
X26975Y24550D02*
D03*
Y25050D02*
D03*
Y25550D02*
D03*
Y26050D02*
D03*
Y26550D02*
D03*
Y27050D02*
D03*
Y27550D02*
D03*
Y28050D02*
D03*
X32025D02*
D03*
Y27550D02*
D03*
Y27050D02*
D03*
Y26550D02*
D03*
Y26050D02*
D03*
Y25550D02*
D03*
Y25050D02*
D03*
Y24550D02*
D03*
D24*
X31300Y70700D02*
D03*
X30650D02*
D03*
X30000D02*
D03*
X29350D02*
D03*
X28700D02*
D03*
D25*
X23475Y43725D02*
D03*
X23475Y44775D02*
D03*
X23475Y45850D02*
D03*
X23475Y46900D02*
D03*
D26*
X35550Y42200D02*
D03*
X34350D02*
D03*
X24050Y10300D02*
D03*
X22850D02*
D03*
X23450Y50975D02*
D03*
X22250D02*
D03*
X36758Y51158D02*
D03*
X35558D02*
D03*
X36758Y52308D02*
D03*
X35558D02*
D03*
X36758Y53458D02*
D03*
X35558D02*
D03*
X36758Y50008D02*
D03*
X35558D02*
D03*
X12800Y54150D02*
D03*
X11600D02*
D03*
D27*
X27175Y36750D02*
D03*
X29275D02*
D03*
X30700Y1775D02*
D03*
X32800D02*
D03*
D28*
X21400Y10300D02*
D03*
X20300D02*
D03*
X24860Y26400D02*
D03*
X23760D02*
D03*
X22300Y49800D02*
D03*
X23400D02*
D03*
X26400Y41875D02*
D03*
X27500D02*
D03*
X35060Y26100D02*
D03*
X33960D02*
D03*
X35060Y27350D02*
D03*
X33960D02*
D03*
X28330Y65746D02*
D03*
X29430D02*
D03*
D29*
X34225Y48475D02*
D03*
Y49575D02*
D03*
X34250Y43500D02*
D03*
Y44600D02*
D03*
X28950Y53300D02*
D03*
Y52200D02*
D03*
X24775Y48700D02*
D03*
Y47600D02*
D03*
X24680Y29100D02*
D03*
Y28000D02*
D03*
X26458Y67776D02*
D03*
Y68876D02*
D03*
D32*
X24985Y35620D02*
D03*
X22885Y34670D02*
D03*
Y36570D02*
D03*
Y39120D02*
D03*
X24985Y40070D02*
D03*
Y38170D02*
D03*
D33*
X24125Y2525D02*
D03*
Y8025D02*
D03*
X20125D02*
D03*
Y2525D02*
D03*
D34*
X21800Y44300D02*
D03*
Y46500D02*
D03*
X20200D02*
D03*
Y44300D02*
D03*
D35*
X32925Y46100D02*
D03*
Y45100D02*
D03*
Y45600D02*
D03*
Y46600D02*
D03*
Y49100D02*
D03*
Y48600D02*
D03*
Y48100D02*
D03*
Y47600D02*
D03*
Y47100D02*
D03*
Y44600D02*
D03*
Y44100D02*
D03*
X26075D02*
D03*
Y44600D02*
D03*
Y45100D02*
D03*
Y45600D02*
D03*
Y46100D02*
D03*
Y46600D02*
D03*
Y47100D02*
D03*
Y47600D02*
D03*
Y48100D02*
D03*
Y48600D02*
D03*
Y49100D02*
D03*
D36*
X27000Y50025D02*
D03*
X27500D02*
D03*
X28000D02*
D03*
X30500D02*
D03*
X31000D02*
D03*
X32000Y43175D02*
D03*
X31500D02*
D03*
X31000D02*
D03*
X30500D02*
D03*
X30000D02*
D03*
X29500D02*
D03*
X29000D02*
D03*
X28500D02*
D03*
X28000D02*
D03*
X27500D02*
D03*
X27000D02*
D03*
X28500Y50025D02*
D03*
X29000D02*
D03*
X29500D02*
D03*
X30000D02*
D03*
X31500D02*
D03*
X32000D02*
D03*
D37*
X29500Y46600D02*
D03*
D38*
X31125Y59700D02*
D03*
X28375D02*
D03*
D39*
X32436Y62381D02*
D03*
Y63981D02*
D03*
D40*
X34350Y68500D02*
D03*
X32450D02*
D03*
D41*
X30918Y62431D02*
D03*
Y63384D02*
D03*
Y64337D02*
D03*
X28468D02*
D03*
Y62431D02*
D03*
D48*
X27575Y70375D02*
D03*
X32425D02*
D03*
D49*
X26350Y73375D02*
D03*
X33650D02*
D03*
D70*
X28851Y73375D02*
D03*
X31149D02*
D03*
M02*
