M48
;Layer_Color=9474304
;FILE_FORMAT=2:4
INCH,TZ
;TYPE=PLATED
T1F00S00C0.0098
T2F00S00C0.0256
T5F00S00C0.0394
T6F00S00C0.1063
%
T01
X15830Y3506
X9931Y4045
X7661Y4055
X7923Y2037
X10640Y1939
X9874Y994
X9048Y8594
X9356Y9413
X9783Y9361
X9826Y9862
X10145Y9594
X10431Y9153
X11215Y8890
X11398Y8622
X11854
X11928Y10011
Y10611
X11328
Y10011
X10102Y10394
X9012Y10393
X9436Y11024
X9717Y11738
X10102Y11521
X9843Y12933
X9837Y13228
X10191Y14468
X10975Y15285
X11014Y15669
X10827Y16150
X11299Y16614
X11752Y16339
X12047Y17480
X11181
X10748Y17913
Y18780
X11181Y18346
Y19213
X11614Y18780
X12480
X12047Y18346
X11614Y17913
X12480
X13064Y16858
X12864Y15591
X13354Y14639
X11526Y13955
X9010Y14001
X8527Y13650
X7105Y14518
X7293Y16303
X7782Y16791
X7559Y17441
X9000Y17840
X8937Y18307
X9813Y18121
X10177Y16978
X9980Y16486
X9439Y16880
X9272Y19193
X9754Y19624
X9661Y20069
X10266Y19543
X10885Y20538
X11093Y20902
X11398Y21378
X11968Y21510
X12264
X12800Y20359
X13022Y19803
X11811Y20108
X12047Y19213
X13445Y18671
X13370Y11020
X13024Y11201
X12912Y10650
X12996Y10039
X13219Y7810
X7710Y7754
X14804Y8928
X15453Y8928
X15445Y9272
X15135Y9568
X15058Y10419
X14133Y10276
Y10768
X13582Y12818
X13831Y13150
X13560Y13988
X13842Y14628
X14847Y14600
X15880
X15984Y15367
X15199
X14953Y16476
X14791Y17186
X14567Y17608
X14395Y17928
X14055Y18120
X13957Y18671
X13878Y18976
X13888Y19282
X14660Y18661
X14022Y17126
X15911Y17186
X16083Y16496
X15043Y13682
X17394Y7536
X13583Y25434
X13120Y25189
X12539Y24134
X13071Y23524
X12539Y22874
X10424Y22623
X8832Y22451
X10039Y25434
X9967Y26264
X10417Y26275
X10835Y26789
X11095Y27066
X11673Y27008
Y26508
X11587Y26157
X12205Y27008
X13524Y26486
T02
X18000Y22250
X18500
X19000
X19500
Y22750
X19000
X18500
X18000
X20000
Y22250
T05
X16500Y1000
Y2000
Y3000
X17500
Y4000
X18500
Y5000
Y6000
X19500
X20500
Y5000
X19500
Y4000
X20500
Y3000
X19500
X18500
Y2000
Y1000
X17500
Y2000
X19500
Y1000
X20500
Y2000
X21500Y3000
X22500
Y4000
Y5000
Y6000
X21500
Y5000
Y4000
X16500
X13480Y2945
X12480
X11480
Y1945
X12480
X13480
X6500Y2000
Y3000
Y4000
X5500
Y3000
X4500
X3500
Y4000
Y5000
X4500
Y6000
X3500
X2500
X1500
Y5000
Y4000
Y3000
X2500
Y4000
Y5000
X4500Y4000
Y2000
X3500
Y1000
X4500
X5500
Y2000
X6500Y1000
Y5000
X5500
Y6000
X6500
Y7000
X5500
X4500
Y8000
Y9000
X5500
X6500
Y10000
Y11000
Y12000
Y13000
Y14000
Y15000
Y16000
Y17000
Y18000
X5500
Y19000
Y20000
X4500
Y19000
Y18000
Y17000
X5500
Y16000
Y15000
Y14000
Y13000
Y12000
Y11000
Y10000
X4500
Y11000
Y12000
Y13000
Y14000
Y15000
Y16000
X3500
Y17000
Y18000
X2500
Y19000
X3500
Y20000
X2500
X1500
Y19000
Y18000
Y17000
Y16000
Y15000
Y14000
Y13000
Y12000
Y11000
Y10000
Y9000
X2500
X3500
Y8000
Y7000
X2500
X1500
Y8000
X2500
Y10000
X3500
Y11000
Y12000
Y13000
Y14000
Y15000
X2500
Y14000
Y13000
Y12000
Y11000
Y16000
Y17000
X6500Y19000
Y20000
X12402Y14390
X6500Y8000
X5500
X16500Y9000
X17500
X18500
Y8000
X19500
X20500
Y9000
X19500
Y10000
X20500
Y11000
Y12000
X19500
X18500
X17500
Y13000
X18500
X19500
X20500
Y14000
X19500
X18500
X17500
Y15000
Y16000
X18500
X19500
X20500
Y17000
X19500
X18500
X17500
Y18000
X18500
X19500
X20500
Y19000
Y20000
X19500
X18500
X17500
Y19000
X18500
X19500
X21500Y18600
Y19600
Y20600
X22500Y20000
Y19000
Y18000
Y17000
Y16000
Y15000
Y14000
Y13000
Y12000
Y11000
Y10000
Y9000
Y8000
Y7000
X21500
X20500
X19500
X18500
Y10000
X17500
Y11000
X18500
X19500
X21500Y11600
Y12600
Y13600
Y14600
Y15600
Y16600
Y17600
X20500Y15000
X19500
X18500
X16500
Y14000
Y13000
Y12000
Y11000
Y10000
X15500Y12000
Y13000
X16500Y16000
Y17000
Y18000
Y19000
Y20000
X21500Y10000
Y9000
Y8000
X15478Y22638
X14478
X13478
X5350Y22638
X4350
X3350
T06
X22697Y925
X925
X22697Y22697
X925
M30
