G04 Layer_Physical_Order=2*
G04 Layer_Color=32768*
%FSLAX43Y43*%
%MOMM*%
G71*
G01*
G75*
%ADD54C,1.016*%
%ADD55C,1.600*%
%ADD56C,3.300*%
%ADD57O,1.250X1.450*%
%ADD58O,1.425X2.100*%
%ADD59C,1.250*%
%ADD60C,0.850*%
G36*
X43012Y10254D02*
X41005Y10254D01*
X31025Y10254D01*
Y12244D01*
Y22242D01*
X43012D01*
X43012Y10254D01*
D02*
G37*
G36*
X29012D02*
X27005Y10254D01*
X17025Y10254D01*
Y12244D01*
Y22242D01*
X29012D01*
X29012Y10254D01*
D02*
G37*
%LPC*%
G36*
X33014Y20253D02*
X33014Y12244D01*
X31025Y12244D01*
X41005D01*
Y20253D01*
X33014Y20253D01*
D02*
G37*
G36*
X19014D02*
X19014Y12244D01*
X17025Y12244D01*
X27005D01*
Y20253D01*
X19014Y20253D01*
D02*
G37*
%LPD*%
D54*
X0Y1000D02*
G03*
X1000Y0I1000J0D01*
G01*
X59000D02*
G03*
X60000Y1000I0J1000D01*
G01*
Y59000D02*
G03*
X59000Y60000I-1000J0D01*
G01*
X36000Y61000D02*
G03*
X37000Y60000I1000J0D01*
G01*
X36000Y74000D02*
G03*
X35000Y75000I-1000J0D01*
G01*
X25000D02*
G03*
X24000Y74000I0J-1000D01*
G01*
X23000Y60000D02*
G03*
X24000Y61000I0J1000D01*
G01*
X1000Y60000D02*
G03*
X0Y59000I0J-1000D01*
G01*
Y1000D02*
Y59000D01*
X1000Y60000D02*
X23000D01*
X24000Y61000D02*
Y74000D01*
X25000Y75000D02*
X35000D01*
X36000Y61000D02*
Y74000D01*
X36000Y61000D02*
X36000D01*
X37000Y60000D02*
X59000D01*
X60000Y1000D02*
Y59000D01*
X1000Y0D02*
X59000D01*
D55*
X16510Y7620D02*
D03*
Y10160D02*
D03*
Y22860D02*
D03*
Y33020D02*
D03*
Y30480D02*
D03*
Y27940D02*
D03*
Y25400D02*
D03*
Y43180D02*
D03*
Y40640D02*
D03*
Y38100D02*
D03*
Y35560D02*
D03*
Y45720D02*
D03*
X13970Y7620D02*
D03*
Y10160D02*
D03*
Y27940D02*
D03*
Y25400D02*
D03*
Y22860D02*
D03*
Y38100D02*
D03*
Y35560D02*
D03*
Y33020D02*
D03*
Y30480D02*
D03*
Y48260D02*
D03*
Y45720D02*
D03*
Y43180D02*
D03*
Y40640D02*
D03*
Y50800D02*
D03*
X6350Y22860D02*
D03*
Y45720D02*
D03*
X8890Y12700D02*
D03*
Y7620D02*
D03*
X57150Y50800D02*
D03*
Y40640D02*
D03*
Y43180D02*
D03*
Y45720D02*
D03*
Y48260D02*
D03*
Y30480D02*
D03*
Y33020D02*
D03*
Y35560D02*
D03*
Y38100D02*
D03*
Y20320D02*
D03*
Y22860D02*
D03*
Y25400D02*
D03*
Y27940D02*
D03*
Y17780D02*
D03*
Y15240D02*
D03*
Y12700D02*
D03*
Y10160D02*
D03*
Y7620D02*
D03*
X11430Y50800D02*
D03*
Y40640D02*
D03*
Y43180D02*
D03*
Y45720D02*
D03*
Y48260D02*
D03*
Y30480D02*
D03*
Y33020D02*
D03*
Y35560D02*
D03*
Y38100D02*
D03*
Y20320D02*
D03*
Y22860D02*
D03*
Y25400D02*
D03*
Y27940D02*
D03*
Y17780D02*
D03*
Y15240D02*
D03*
Y12700D02*
D03*
Y10160D02*
D03*
Y7620D02*
D03*
X8890Y50800D02*
D03*
Y40640D02*
D03*
Y43180D02*
D03*
Y45720D02*
D03*
Y48260D02*
D03*
Y30480D02*
D03*
Y33020D02*
D03*
Y35560D02*
D03*
Y38100D02*
D03*
Y20320D02*
D03*
Y22860D02*
D03*
Y25400D02*
D03*
Y27940D02*
D03*
Y17780D02*
D03*
Y15240D02*
D03*
Y10160D02*
D03*
X6350Y48260D02*
D03*
Y50800D02*
D03*
X3810D02*
D03*
Y40640D02*
D03*
Y43180D02*
D03*
Y45720D02*
D03*
Y48260D02*
D03*
Y30480D02*
D03*
Y33020D02*
D03*
Y35560D02*
D03*
Y38100D02*
D03*
Y20320D02*
D03*
Y22860D02*
D03*
Y25400D02*
D03*
Y27940D02*
D03*
Y17780D02*
D03*
Y15240D02*
D03*
Y12700D02*
D03*
Y10160D02*
D03*
Y7620D02*
D03*
X44450Y50800D02*
D03*
X46990D02*
D03*
X49530D02*
D03*
X52070D02*
D03*
Y40640D02*
D03*
X49530D02*
D03*
X46990D02*
D03*
X44450D02*
D03*
X52070Y43180D02*
D03*
X49530D02*
D03*
X46990D02*
D03*
X44450D02*
D03*
X52070Y45720D02*
D03*
X49530D02*
D03*
X46990D02*
D03*
X44450D02*
D03*
X52070Y48260D02*
D03*
X49530D02*
D03*
X46990D02*
D03*
X44450D02*
D03*
X52070Y30480D02*
D03*
X49530D02*
D03*
X46990D02*
D03*
X44450D02*
D03*
X52070Y33020D02*
D03*
X49530D02*
D03*
X46990D02*
D03*
X44450D02*
D03*
X52070Y35560D02*
D03*
X49530D02*
D03*
X46990D02*
D03*
X44450D02*
D03*
X52070Y38100D02*
D03*
X49530D02*
D03*
X46990D02*
D03*
X44450D02*
D03*
X52070Y20320D02*
D03*
X49530D02*
D03*
X46990D02*
D03*
X52070Y22860D02*
D03*
X49530D02*
D03*
X46990D02*
D03*
X44450D02*
D03*
X52070Y25400D02*
D03*
X49530D02*
D03*
X46990D02*
D03*
X44450D02*
D03*
X52070Y27940D02*
D03*
X49530D02*
D03*
X46990D02*
D03*
X44450D02*
D03*
X46990Y17780D02*
D03*
X49530D02*
D03*
X52070D02*
D03*
X46990Y15240D02*
D03*
X49530D02*
D03*
X52070D02*
D03*
X46990Y12700D02*
D03*
X49530D02*
D03*
X52070D02*
D03*
X44450Y10160D02*
D03*
X46990D02*
D03*
X49530D02*
D03*
X52070D02*
D03*
Y7620D02*
D03*
X49530D02*
D03*
X46990D02*
D03*
X44450D02*
D03*
X41910D02*
D03*
Y10160D02*
D03*
Y27940D02*
D03*
Y25400D02*
D03*
Y22860D02*
D03*
Y38100D02*
D03*
Y35560D02*
D03*
Y33020D02*
D03*
Y30480D02*
D03*
Y48260D02*
D03*
Y45720D02*
D03*
Y43180D02*
D03*
Y40640D02*
D03*
Y50800D02*
D03*
Y5080D02*
D03*
Y2540D02*
D03*
X44450D02*
D03*
X46990D02*
D03*
X49530D02*
D03*
X52070D02*
D03*
Y5080D02*
D03*
X49530D02*
D03*
X46990D02*
D03*
X44450D02*
D03*
X8890D02*
D03*
X11430Y2540D02*
D03*
Y5080D02*
D03*
X8890Y2540D02*
D03*
X13970Y5080D02*
D03*
Y2540D02*
D03*
X16510Y5080D02*
D03*
Y2540D02*
D03*
X39370Y33020D02*
D03*
Y30480D02*
D03*
X31500Y36550D02*
D03*
X13970Y12700D02*
D03*
X16510D02*
D03*
X13970Y15240D02*
D03*
X16510D02*
D03*
X13970Y17780D02*
D03*
X16510D02*
D03*
X13970Y20320D02*
D03*
X16510D02*
D03*
X29160Y7480D02*
D03*
X31700D02*
D03*
X29160Y4940D02*
D03*
X34240Y7480D02*
D03*
X31700Y4940D02*
D03*
X34240D02*
D03*
X6350Y10160D02*
D03*
Y7620D02*
D03*
Y15240D02*
D03*
Y12700D02*
D03*
Y17780D02*
D03*
Y20320D02*
D03*
Y33020D02*
D03*
Y30480D02*
D03*
Y25400D02*
D03*
Y27940D02*
D03*
Y38100D02*
D03*
Y35560D02*
D03*
Y40640D02*
D03*
Y43180D02*
D03*
X54610Y7620D02*
D03*
Y10160D02*
D03*
Y15240D02*
D03*
Y12700D02*
D03*
Y22860D02*
D03*
Y25400D02*
D03*
Y20320D02*
D03*
Y17780D02*
D03*
Y52324D02*
D03*
Y49784D02*
D03*
Y29464D02*
D03*
Y32004D02*
D03*
Y37084D02*
D03*
Y34544D02*
D03*
Y44704D02*
D03*
Y47244D02*
D03*
Y42164D02*
D03*
Y39624D02*
D03*
X16510Y50800D02*
D03*
Y48260D02*
D03*
X39315Y57500D02*
D03*
X36775D02*
D03*
X34235D02*
D03*
X13590Y57500D02*
D03*
X11050D02*
D03*
X8510D02*
D03*
D56*
X57650Y2350D02*
D03*
X2350D02*
D03*
X57650Y57650D02*
D03*
X2350D02*
D03*
D57*
X32425Y70375D02*
D03*
X27575D02*
D03*
D58*
X26487Y73375D02*
D03*
X33512D02*
D03*
D59*
X45720Y56515D02*
D03*
X46990D02*
D03*
X48260D02*
D03*
X49530D02*
D03*
Y57785D02*
D03*
X48260D02*
D03*
X46990D02*
D03*
X45720D02*
D03*
X50800D02*
D03*
Y56515D02*
D03*
D60*
X37603Y22678D02*
D03*
X28485Y22581D02*
D03*
X38248Y26465D02*
D03*
X38442Y24302D02*
D03*
X31850Y61300D02*
D03*
Y58100D02*
D03*
X33200Y59750D02*
D03*
X33010Y25500D02*
D03*
X22891Y26399D02*
D03*
X24680Y29813D02*
D03*
X23967Y28000D02*
D03*
X30296Y25428D02*
D03*
Y26952D02*
D03*
X28772D02*
D03*
Y25428D02*
D03*
X25658Y29263D02*
D03*
Y26400D02*
D03*
X40600Y39033D02*
D03*
X38605D02*
D03*
X38209Y34752D02*
D03*
X35158Y37154D02*
D03*
X33919Y37183D02*
D03*
X34443Y35530D02*
D03*
X35130Y33400D02*
D03*
X37980Y41850D02*
D03*
X37000Y44725D02*
D03*
X37711Y37084D02*
D03*
X34498Y32558D02*
D03*
X25079Y2525D02*
D03*
X39230Y23550D02*
D03*
X40413Y43654D02*
D03*
X37569D02*
D03*
X33080Y28450D02*
D03*
X39252Y22677D02*
D03*
X30110Y21900D02*
D03*
X35897Y27350D02*
D03*
Y26100D02*
D03*
X33960Y27991D02*
D03*
X32797Y27050D02*
D03*
X26478Y57462D02*
D03*
X34500Y64603D02*
D03*
X28181Y68749D02*
D03*
X27520Y68045D02*
D03*
X33326Y63981D02*
D03*
X35250Y48200D02*
D03*
X35275Y48975D02*
D03*
X29850Y41500D02*
D03*
X27975Y39800D02*
D03*
X37236Y47400D02*
D03*
X34150Y47425D02*
D03*
X35700Y46025D02*
D03*
X35450Y47425D02*
D03*
X33184Y42819D02*
D03*
X23975Y42875D02*
D03*
X25350Y41875D02*
D03*
X25850Y43125D02*
D03*
X24926Y46027D02*
D03*
X25225Y10275D02*
D03*
X32512Y51712D02*
D03*
X24775Y49844D02*
D03*
X24540Y50975D02*
D03*
X21659Y34670D02*
D03*
X27025Y4925D02*
D03*
X35615Y43500D02*
D03*
X18525Y41409D02*
D03*
X19766Y42650D02*
D03*
X27500Y41021D02*
D03*
X20125Y5175D02*
D03*
X32675Y39600D02*
D03*
X23550Y48750D02*
D03*
X33075Y50300D02*
D03*
X28950Y54300D02*
D03*
X40850Y41900D02*
D03*
X18046Y36875D02*
D03*
X28700Y42200D02*
D03*
X36562Y45538D02*
D03*
X40336Y37084D02*
D03*
X26075Y49640D02*
D03*
X30000Y51075D02*
D03*
X27648Y52167D02*
D03*
X27878Y38825D02*
D03*
X22860Y45312D02*
D03*
X31000Y68600D02*
D03*
X29650D02*
D03*
X31150Y54635D02*
D03*
X30400D02*
D03*
X34350Y67275D02*
D03*
X22885Y35564D02*
D03*
X24985Y33600D02*
D03*
X25885Y36750D02*
D03*
X29275Y35446D02*
D03*
X28175Y53092D02*
D03*
X25000Y32850D02*
D03*
X29650Y67330D02*
D03*
X22700Y46500D02*
D03*
X19200Y44300D02*
D03*
X25500Y64602D02*
D03*
X26458Y66738D02*
D03*
X25315Y66711D02*
D03*
X29430Y66439D02*
D03*
X19460Y10300D02*
D03*
X28950Y21900D02*
D03*
X24849Y23777D02*
D03*
X26494Y23248D02*
D03*
X25768Y24368D02*
D03*
X24959Y25050D02*
D03*
X23765Y23909D02*
D03*
X22983Y21829D02*
D03*
X40209Y8906D02*
D03*
X44181Y19141D02*
D03*
X22434Y57025D02*
D03*
X31700Y47700D02*
D03*
X27300Y45500D02*
D03*
Y47700D02*
D03*
X28400Y44400D02*
D03*
Y46600D02*
D03*
Y48800D02*
D03*
X29500Y45500D02*
D03*
Y47700D02*
D03*
X30600Y44400D02*
D03*
Y46600D02*
D03*
Y48800D02*
D03*
X31700Y45500D02*
D03*
M02*
